<svg xmlns="http://www.w3.org/2000/svg" xmlns:xlink="http://www.w3.org/1999/xlink" viewBox="0 0 65 20" fill="#fff" fill-rule="evenodd" stroke="#000" stroke-linecap="round" stroke-linejoin="round"><use xlink:href="#Ab" x=".5" y=".5"/><defs><linearGradient x1="48.3766971%" y1="-14.4748042%" x2="51.4390397%" y2="108.20454%" id="A"><stop stop-color="#6a3894" offset="0%"/><stop stop-color="#8a2f83" offset="10.58%"/><stop stop-color="#b4256c" offset="26.53%"/><stop stop-color="#d31c5d" offset="40.92%"/><stop stop-color="#e51e54" offset="53.09%"/><stop stop-color="#ec1e4f" offset="61.58%"/><stop stop-color="#f8e47f" offset="100%"/></linearGradient><linearGradient x1="49.460987%" y1="25.1370861%" x2="52.0418201%" y2="134.884739%" id="B"><stop stop-color="#6a3894" offset="0%"/><stop stop-color="#8a2f83" offset="10.58%"/><stop stop-color="#b4256c" offset="26.53%"/><stop stop-color="#d31c5d" offset="40.92%"/><stop stop-color="#e51e54" offset="53.09%"/><stop stop-color="#ec1e4f" offset="61.58%"/><stop stop-color="#f8e47f" offset="100%"/></linearGradient><linearGradient x1="48.221143%" y1="-15.7682157%" x2="51.6622108%" y2="108.575315%" id="C"><stop stop-color="#6a3894" offset="0%"/><stop stop-color="#8a2f83" offset="10.58%"/><stop stop-color="#b4256c" offset="26.53%"/><stop stop-color="#d31c5d" offset="40.92%"/><stop stop-color="#e51e54" offset="53.09%"/><stop stop-color="#ec1e4f" offset="61.58%"/><stop stop-color="#f8e47f" offset="100%"/></linearGradient><linearGradient x1="48.8455932%" y1="14.3707876%" x2="52.5519507%" y2="133.905532%" id="D"><stop stop-color="#6a3894" offset="0%"/><stop stop-color="#8a2f83" offset="10.58%"/><stop stop-color="#b4256c" offset="26.53%"/><stop stop-color="#d31c5d" offset="40.92%"/><stop stop-color="#e51e54" offset="53.09%"/><stop stop-color="#ec1e4f" offset="61.58%"/><stop stop-color="#f8e47f" offset="100%"/></linearGradient><linearGradient x1="48.4773512%" y1="-17.0181125%" x2="51.6532459%" y2="108.531087%" id="E"><stop stop-color="#6a3894" offset="0%"/><stop stop-color="#8a2f83" offset="10.58%"/><stop stop-color="#b4256c" offset="26.53%"/><stop stop-color="#d31c5d" offset="40.92%"/><stop stop-color="#e51e54" offset="53.09%"/><stop stop-color="#ec1e4f" offset="61.58%"/><stop stop-color="#f8e47f" offset="100%"/></linearGradient><linearGradient x1="48.9573055%" y1="4.90840544%" x2="52.1411808%" y2="155.044045%" id="F"><stop stop-color="#6a3894" offset="0%"/><stop stop-color="#8a2f83" offset="10.58%"/><stop stop-color="#b4256c" offset="26.53%"/><stop stop-color="#d31c5d" offset="40.92%"/><stop stop-color="#e51e54" offset="53.09%"/><stop stop-color="#ec1e4f" offset="61.58%"/><stop stop-color="#f8e47f" offset="100%"/></linearGradient><linearGradient x1="48.7470325%" y1="-20.5688086%" x2="51.5706737%" y2="111.805424%" id="G"><stop stop-color="#6a3894" offset="0%"/><stop stop-color="#8a2f83" offset="10.58%"/><stop stop-color="#b4256c" offset="26.53%"/><stop stop-color="#d31c5d" offset="40.92%"/><stop stop-color="#e51e54" offset="53.09%"/><stop stop-color="#ec1e4f" offset="61.58%"/><stop stop-color="#f8e47f" offset="100%"/></linearGradient><linearGradient x1="48.9014553%" y1="-8.2638852%" x2="51.9641366%" y2="139.506575%" id="H"><stop stop-color="#6a3894" offset="0%"/><stop stop-color="#8a2f83" offset="10.58%"/><stop stop-color="#b4256c" offset="26.53%"/><stop stop-color="#d31c5d" offset="40.92%"/><stop stop-color="#e51e54" offset="53.09%"/><stop stop-color="#ec1e4f" offset="61.58%"/><stop stop-color="#f8e47f" offset="100%"/></linearGradient><linearGradient x1="48.8783436%" y1="-40.5677323%" x2="49.7517809%" y2="35.508044%" id="I"><stop stop-color="#f8e47f" offset="0%"/><stop stop-color="#f7db7c" offset="10.57%"/><stop stop-color="#f3c87b" offset="34.93%"/><stop stop-color="#f2c179" offset="51.98%"/><stop stop-color="#f6d17b" offset="70.96%"/><stop stop-color="#f8e47f" offset="100%"/></linearGradient><linearGradient x1="61.2950036%" y1="-95.7542166%" x2="47.1669901%" y2="83.3767768%" id="J"><stop stop-color="#f8e47f" offset="0%"/><stop stop-color="#f7db7c" offset="10.57%"/><stop stop-color="#f3c87b" offset="34.93%"/><stop stop-color="#f2c179" offset="51.98%"/><stop stop-color="#f6d17b" offset="70.96%"/><stop stop-color="#f8e47f" offset="100%"/></linearGradient><linearGradient x1="48.7627526%" y1="-62.5549028%" x2="49.8289209%" y2="31.5172942%" id="K"><stop stop-color="#f8e47f" offset="0%"/><stop stop-color="#f7db7c" offset="10.57%"/><stop stop-color="#f3c87b" offset="34.93%"/><stop stop-color="#f2c179" offset="51.98%"/><stop stop-color="#f6d17b" offset="70.96%"/><stop stop-color="#f8e47f" offset="100%"/></linearGradient><linearGradient x1="61.8915616%" y1="-134.185589%" x2="44.0316209%" y2="133.251663%" id="L"><stop stop-color="#f8e47f" offset="0%"/><stop stop-color="#f7db7c" offset="10.57%"/><stop stop-color="#f3c87b" offset="34.93%"/><stop stop-color="#f2c179" offset="51.98%"/><stop stop-color="#f6d17b" offset="70.96%"/><stop stop-color="#f8e47f" offset="100%"/></linearGradient><linearGradient x1="47.9621439%" y1="-127.500646%" x2="49.5842417%" y2="28.726395%" id="M"><stop stop-color="#f8e47f" offset="0%"/><stop stop-color="#f7db7c" offset="10.57%"/><stop stop-color="#f3c87b" offset="34.93%"/><stop stop-color="#f2c179" offset="51.98%"/><stop stop-color="#f6d17b" offset="70.96%"/><stop stop-color="#f8e47f" offset="100%"/></linearGradient><linearGradient x1="48.0082885%" y1="-165.229325%" x2="49.9982847%" y2="24.9601161%" id="N"><stop stop-color="#f8e47f" offset="0%"/><stop stop-color="#f7db7c" offset="10.57%"/><stop stop-color="#f3c87b" offset="34.93%"/><stop stop-color="#f2c179" offset="51.98%"/><stop stop-color="#f6d17b" offset="70.96%"/><stop stop-color="#f8e47f" offset="100%"/></linearGradient><linearGradient x1="49.4204991%" y1="-96.0901922%" x2="51.3313938%" y2="148.654117%" id="O"><stop stop-color="#f8e47f" offset="0%"/><stop stop-color="#f7db7c" offset="10.57%"/><stop stop-color="#f3c87b" offset="34.93%"/><stop stop-color="#f2c179" offset="51.98%"/><stop stop-color="#f6d17b" offset="70.96%"/><stop stop-color="#f8e47f" offset="100%"/></linearGradient><linearGradient x1="47.2850385%" y1="-269.552579%" x2="50.254724%" y2="94.9727508%" id="P"><stop stop-color="#f8e47f" offset="0%"/><stop stop-color="#f7db7c" offset="10.57%"/><stop stop-color="#f3c87b" offset="34.93%"/><stop stop-color="#f2c179" offset="51.98%"/><stop stop-color="#f6d17b" offset="70.96%"/><stop stop-color="#f8e47f" offset="100%"/></linearGradient><linearGradient x1="36.8117643%" y1="136.870384%" x2="63.3196808%" y2="-33.2912657%" id="Q"><stop stop-color="#6a3894" offset="0%"/><stop stop-color="#8a2f83" offset="10.58%"/><stop stop-color="#b4256c" offset="26.53%"/><stop stop-color="#d31c5d" offset="40.92%"/><stop stop-color="#e51e54" offset="53.09%"/><stop stop-color="#ec1e4f" offset="61.58%"/><stop stop-color="#f8e47f" offset="100%"/></linearGradient><linearGradient x1="51.2678729%" y1="47.7972879%" x2="111.195249%" y2="-92.9815632%" id="R"><stop stop-color="#6a3894" offset="0%"/><stop stop-color="#8a2f83" offset="10.58%"/><stop stop-color="#b4256c" offset="26.53%"/><stop stop-color="#d31c5d" offset="40.92%"/><stop stop-color="#e51e54" offset="53.09%"/><stop stop-color="#ec1e4f" offset="61.58%"/><stop stop-color="#f8e47f" offset="100%"/></linearGradient><linearGradient x1="28.8608793%" y1="154.569829%" x2="66.465133%" y2="-25.9394885%" id="S"><stop stop-color="#6a3894" offset="0%"/><stop stop-color="#8a2f83" offset="10.58%"/><stop stop-color="#b4256c" offset="26.53%"/><stop stop-color="#d31c5d" offset="40.92%"/><stop stop-color="#e51e54" offset="53.09%"/><stop stop-color="#ec1e4f" offset="61.58%"/><stop stop-color="#f8e47f" offset="100%"/></linearGradient><linearGradient x1="39.4057397%" y1="88.5229443%" x2="98.5995279%" y2="-60.131647%" id="T"><stop stop-color="#6a3894" offset="0%"/><stop stop-color="#8a2f83" offset="10.58%"/><stop stop-color="#b4256c" offset="26.53%"/><stop stop-color="#d31c5d" offset="40.92%"/><stop stop-color="#e51e54" offset="53.09%"/><stop stop-color="#ec1e4f" offset="61.58%"/><stop stop-color="#f8e47f" offset="100%"/></linearGradient><linearGradient x1="30.2073245%" y1="198.315613%" x2="63.3422197%" y2="-44.5529191%" id="U"><stop stop-color="#6a3894" offset="0%"/><stop stop-color="#8a2f83" offset="10.58%"/><stop stop-color="#b4256c" offset="26.53%"/><stop stop-color="#d31c5d" offset="40.92%"/><stop stop-color="#e51e54" offset="53.09%"/><stop stop-color="#ec1e4f" offset="61.58%"/><stop stop-color="#f8e47f" offset="100%"/></linearGradient><linearGradient x1="23.3525723%" y1="145.50073%" x2="83.0328956%" y2="-60.8837983%" id="V"><stop stop-color="#6a3894" offset="0%"/><stop stop-color="#8a2f83" offset="10.58%"/><stop stop-color="#b4256c" offset="26.53%"/><stop stop-color="#d31c5d" offset="40.92%"/><stop stop-color="#e51e54" offset="53.09%"/><stop stop-color="#ec1e4f" offset="61.58%"/><stop stop-color="#f8e47f" offset="100%"/></linearGradient><linearGradient x1="27.9563567%" y1="228.377354%" x2="59.9125405%" y2="-21.2995824%" id="W"><stop stop-color="#6a3894" offset="0%"/><stop stop-color="#8a2f83" offset="10.58%"/><stop stop-color="#b4256c" offset="26.53%"/><stop stop-color="#d31c5d" offset="40.92%"/><stop stop-color="#e51e54" offset="53.09%"/><stop stop-color="#ec1e4f" offset="61.58%"/><stop stop-color="#f8e47f" offset="100%"/></linearGradient><linearGradient x1="50.0468279%" y1="55.2451317%" x2="50.9488352%" y2="155.803843%" id="X"><stop stop-color="#f8e47f" offset="0%"/><stop stop-color="#f7db7c" offset="10.57%"/><stop stop-color="#f3c87b" offset="34.93%"/><stop stop-color="#f2c179" offset="51.98%"/><stop stop-color="#f6d17b" offset="70.96%"/><stop stop-color="#f8e47f" offset="100%"/></linearGradient><linearGradient x1="52.9348299%" y1="4.41588253%" x2="41.0031888%" y2="204.290039%" id="Y"><stop stop-color="#f8e47f" offset="0%"/><stop stop-color="#f7db7c" offset="10.57%"/><stop stop-color="#f3c87b" offset="34.93%"/><stop stop-color="#f2c179" offset="51.98%"/><stop stop-color="#f6d17b" offset="70.96%"/><stop stop-color="#f8e47f" offset="100%"/></linearGradient><linearGradient x1="54.5577779%" y1="-13.0721165%" x2="39.844148%" y2="224.278444%" id="Z"><stop stop-color="#f8e47f" offset="0%"/><stop stop-color="#f7db7c" offset="10.57%"/><stop stop-color="#f3c87b" offset="34.93%"/><stop stop-color="#f2c179" offset="51.98%"/><stop stop-color="#f6d17b" offset="70.96%"/><stop stop-color="#f8e47f" offset="100%"/></linearGradient><linearGradient x1="58.2441761%" y1="-110.719102%" x2="35.8840924%" y2="341.375938%" id="a"><stop stop-color="#f8e47f" offset="0%"/><stop stop-color="#f7db7c" offset="10.57%"/><stop stop-color="#f3c87b" offset="34.93%"/><stop stop-color="#f2c179" offset="51.98%"/><stop stop-color="#f6d17b" offset="70.96%"/><stop stop-color="#f8e47f" offset="100%"/></linearGradient><linearGradient x1="48.7387763%" y1="-111.609454%" x2="50.6128505%" y2="138.353811%" id="b"><stop stop-color="#f8e47f" offset="0%"/><stop stop-color="#f7db7c" offset="10.57%"/><stop stop-color="#f3c87b" offset="34.93%"/><stop stop-color="#f2c179" offset="51.98%"/><stop stop-color="#f6d17b" offset="70.96%"/><stop stop-color="#f8e47f" offset="100%"/></linearGradient><linearGradient x1="49.4502913%" y1="4.04335935%" x2="50.5976945%" y2="145.151657%" id="c"><stop stop-color="#f8e47f" offset="0%"/><stop stop-color="#f7db7c" offset="10.57%"/><stop stop-color="#f3c87b" offset="34.93%"/><stop stop-color="#f2c179" offset="51.98%"/><stop stop-color="#f6d17b" offset="70.96%"/><stop stop-color="#f8e47f" offset="100%"/></linearGradient><linearGradient x1="106.724158%" y1="8.25249108%" x2="0.727065%" y2="121.341091%" id="d"><stop stop-color="#7f3996" offset="0%"/><stop stop-color="#9c2f82" offset="7.1%"/><stop stop-color="#b92770" offset="15.99%"/><stop stop-color="#d02162" offset="25.42%"/><stop stop-color="#df1e57" offset="35.54%"/><stop stop-color="#e91f52" offset="46.82%"/><stop stop-color="#ec1e4f" offset="61.58%"/><stop stop-color="#f8e47f" offset="100%"/></linearGradient><linearGradient x1="99.5418431%" y1="11.0888041%" x2="9.96758254%" y2="104.951544%" id="e"><stop stop-color="#7f3996" offset="0%"/><stop stop-color="#9c2f82" offset="7.1%"/><stop stop-color="#b92770" offset="15.99%"/><stop stop-color="#d02162" offset="25.42%"/><stop stop-color="#df1e57" offset="35.54%"/><stop stop-color="#e91f52" offset="46.82%"/><stop stop-color="#ec1e4f" offset="61.58%"/><stop stop-color="#f8e47f" offset="100%"/></linearGradient><linearGradient x1="87.195506%" y1="12.4264207%" x2="13.244046%" y2="100.149353%" id="f"><stop stop-color="#7f3996" offset="0%"/><stop stop-color="#9c2f82" offset="7.1%"/><stop stop-color="#b92770" offset="15.99%"/><stop stop-color="#d02162" offset="25.42%"/><stop stop-color="#df1e57" offset="35.54%"/><stop stop-color="#e91f52" offset="46.82%"/><stop stop-color="#ec1e4f" offset="61.58%"/><stop stop-color="#f8e47f" offset="100%"/></linearGradient><linearGradient x1="80.2907526%" y1="14.0911901%" x2="21.4044626%" y2="97.1555616%" id="g"><stop stop-color="#7f3996" offset="0%"/><stop stop-color="#9c2f82" offset="7.1%"/><stop stop-color="#b92770" offset="15.99%"/><stop stop-color="#d02162" offset="25.42%"/><stop stop-color="#df1e57" offset="35.54%"/><stop stop-color="#e91f52" offset="46.82%"/><stop stop-color="#ec1e4f" offset="61.58%"/><stop stop-color="#f8e47f" offset="100%"/></linearGradient><linearGradient x1="76.025046%" y1="-4.77798478%" x2="25.9173294%" y2="100.047107%" id="h"><stop stop-color="#7f3996" offset="0%"/><stop stop-color="#873a93" offset="9.59%"/><stop stop-color="#9e3b90" offset="24.69%"/><stop stop-color="#c23b89" offset="43.29%"/><stop stop-color="#ec3e81" offset="61.58%"/><stop stop-color="#f8e47f" offset="100%"/></linearGradient><linearGradient x1="54.8049385%" y1="35.2297898%" x2="35.2348683%" y2="97.2813156%" id="i"><stop stop-color="#7f3996" offset="0%"/><stop stop-color="#9c2f82" offset="7.1%"/><stop stop-color="#b92770" offset="15.99%"/><stop stop-color="#d02162" offset="25.42%"/><stop stop-color="#df1e57" offset="35.54%"/><stop stop-color="#e91f52" offset="46.82%"/><stop stop-color="#ec1e4f" offset="61.58%"/><stop stop-color="#f8e47f" offset="100%"/></linearGradient><linearGradient x1="56.0746536%" y1="31.5894512%" x2="41.8889221%" y2="89.9027201%" id="j"><stop stop-color="#7f3996" offset="0%"/><stop stop-color="#9c2f82" offset="7.1%"/><stop stop-color="#b92770" offset="15.99%"/><stop stop-color="#d02162" offset="25.42%"/><stop stop-color="#df1e57" offset="35.54%"/><stop stop-color="#e91f52" offset="46.82%"/><stop stop-color="#ec1e4f" offset="61.58%"/><stop stop-color="#f8e47f" offset="100%"/></linearGradient><linearGradient x1="54.6886854%" y1="22.487617%" x2="32.0786365%" y2="154.954459%" id="k"><stop stop-color="#7f3996" offset="0%"/><stop stop-color="#9c2f82" offset="7.1%"/><stop stop-color="#b92770" offset="15.99%"/><stop stop-color="#d02162" offset="25.42%"/><stop stop-color="#df1e57" offset="35.54%"/><stop stop-color="#e91f52" offset="46.82%"/><stop stop-color="#ec1e4f" offset="61.58%"/><stop stop-color="#f8e47f" offset="100%"/></linearGradient><linearGradient x1="56.2494693%" y1="25.1048036%" x2="40.5926253%" y2="88.7892646%" id="l"><stop stop-color="#7f3996" offset="0%"/><stop stop-color="#9c2f82" offset="7.1%"/><stop stop-color="#b92770" offset="15.99%"/><stop stop-color="#d02162" offset="25.42%"/><stop stop-color="#df1e57" offset="35.54%"/><stop stop-color="#e91f52" offset="46.82%"/><stop stop-color="#ec1e4f" offset="61.58%"/><stop stop-color="#f8e47f" offset="100%"/></linearGradient><linearGradient x1="55.8044702%" y1="12.8139922%" x2="33.1944212%" y2="155.28944%" id="m"><stop stop-color="#7f3996" offset="0%"/><stop stop-color="#9c2f82" offset="7.1%"/><stop stop-color="#b92770" offset="15.99%"/><stop stop-color="#d02162" offset="25.42%"/><stop stop-color="#df1e57" offset="35.54%"/><stop stop-color="#e91f52" offset="46.82%"/><stop stop-color="#ec1e4f" offset="61.58%"/><stop stop-color="#f8e47f" offset="100%"/></linearGradient><linearGradient x1="54.1028045%" y1="7.85611091%" x2="46.7810145%" y2="83.4914712%" id="n"><stop stop-color="#7f3996" offset="0%"/><stop stop-color="#9c2f82" offset="7.1%"/><stop stop-color="#b92770" offset="15.99%"/><stop stop-color="#d02162" offset="25.42%"/><stop stop-color="#df1e57" offset="35.54%"/><stop stop-color="#e91f52" offset="46.82%"/><stop stop-color="#ec1e4f" offset="61.58%"/><stop stop-color="#f8e47f" offset="100%"/></linearGradient><linearGradient x1="52.8144903%" y1="16.0187785%" x2="44.7704108%" y2="115.366485%" id="o"><stop stop-color="#7f3996" offset="0%"/><stop stop-color="#9c2f82" offset="7.1%"/><stop stop-color="#b92770" offset="15.99%"/><stop stop-color="#d02162" offset="25.42%"/><stop stop-color="#df1e57" offset="35.54%"/><stop stop-color="#e91f52" offset="46.82%"/><stop stop-color="#ec1e4f" offset="61.58%"/><stop stop-color="#f8e47f" offset="100%"/></linearGradient><linearGradient x1="53.102613%" y1="11.8046156%" x2="44.4090118%" y2="118.906549%" id="p"><stop stop-color="#7f3996" offset="0%"/><stop stop-color="#9c2f82" offset="7.1%"/><stop stop-color="#b92770" offset="15.99%"/><stop stop-color="#d02162" offset="25.42%"/><stop stop-color="#df1e57" offset="35.54%"/><stop stop-color="#e91f52" offset="46.82%"/><stop stop-color="#ec1e4f" offset="61.58%"/><stop stop-color="#f8e47f" offset="100%"/></linearGradient><linearGradient x1="55.4634826%" y1="0.975370495%" x2="37.3021839%" y2="159.67327%" id="q"><stop stop-color="#7f3996" offset="0%"/><stop stop-color="#9c2f82" offset="7.1%"/><stop stop-color="#b92770" offset="15.99%"/><stop stop-color="#d02162" offset="25.42%"/><stop stop-color="#df1e57" offset="35.54%"/><stop stop-color="#e91f52" offset="46.82%"/><stop stop-color="#ec1e4f" offset="61.58%"/><stop stop-color="#f8e47f" offset="100%"/></linearGradient><linearGradient x1="54.8407468%" y1="-0.941153861%" x2="39.3817825%" y2="157.755956%" id="r"><stop stop-color="#7f3996" offset="0%"/><stop stop-color="#9c2f82" offset="7.1%"/><stop stop-color="#b92770" offset="15.99%"/><stop stop-color="#d02162" offset="25.42%"/><stop stop-color="#df1e57" offset="35.54%"/><stop stop-color="#e91f52" offset="46.82%"/><stop stop-color="#ec1e4f" offset="61.58%"/><stop stop-color="#f8e47f" offset="100%"/></linearGradient><linearGradient x1="54.5715711%" y1="15.506944%" x2="44.5069636%" y2="89.968775%" id="s"><stop stop-color="#7f3996" offset="0%"/><stop stop-color="#9c2f82" offset="7.1%"/><stop stop-color="#b92770" offset="15.99%"/><stop stop-color="#d02162" offset="25.42%"/><stop stop-color="#df1e57" offset="35.54%"/><stop stop-color="#e91f52" offset="46.82%"/><stop stop-color="#ec1e4f" offset="61.58%"/><stop stop-color="#f8e47f" offset="100%"/></linearGradient><linearGradient x1="54.2415283%" y1="-3.00905541%" x2="41.2077086%" y2="160.546943%" id="t"><stop stop-color="#7f3996" offset="0%"/><stop stop-color="#9c2f82" offset="7.1%"/><stop stop-color="#b92770" offset="15.99%"/><stop stop-color="#d02162" offset="25.42%"/><stop stop-color="#df1e57" offset="35.54%"/><stop stop-color="#e91f52" offset="46.82%"/><stop stop-color="#ec1e4f" offset="61.58%"/><stop stop-color="#f8e47f" offset="100%"/></linearGradient><linearGradient x1="53.7753398%" y1="17.4479346%" x2="45.3212821%" y2="92.2933152%" id="u"><stop stop-color="#7f3996" offset="0%"/><stop stop-color="#9c2f82" offset="7.1%"/><stop stop-color="#b92770" offset="15.99%"/><stop stop-color="#d02162" offset="25.42%"/><stop stop-color="#df1e57" offset="35.54%"/><stop stop-color="#e91f52" offset="46.82%"/><stop stop-color="#ec1e4f" offset="61.58%"/><stop stop-color="#f8e47f" offset="100%"/></linearGradient><linearGradient x1="53.9905502%" y1="-4.15846159%" x2="41.8603415%" y2="155.32898%" id="v"><stop stop-color="#7f3996" offset="0%"/><stop stop-color="#9c2f82" offset="7.1%"/><stop stop-color="#b92770" offset="15.99%"/><stop stop-color="#d02162" offset="25.42%"/><stop stop-color="#df1e57" offset="35.54%"/><stop stop-color="#e91f52" offset="46.82%"/><stop stop-color="#ec1e4f" offset="61.58%"/><stop stop-color="#f8e47f" offset="100%"/></linearGradient><linearGradient x1="52.8936968%" y1="20.8177393%" x2="45.1513012%" y2="98.4648191%" id="w"><stop stop-color="#7f3996" offset="0%"/><stop stop-color="#9c2f82" offset="7.1%"/><stop stop-color="#b92770" offset="15.99%"/><stop stop-color="#d02162" offset="25.42%"/><stop stop-color="#df1e57" offset="35.54%"/><stop stop-color="#e91f52" offset="46.82%"/><stop stop-color="#ec1e4f" offset="61.58%"/><stop stop-color="#f8e47f" offset="100%"/></linearGradient><linearGradient x1="18.8003134%" y1="73.6468076%" x2="117.39748%" y2="-83.5027938%" id="x"><stop stop-color="#6a3894" offset="0%"/><stop stop-color="#8a2f83" offset="10.58%"/><stop stop-color="#b4256c" offset="26.53%"/><stop stop-color="#d31c5d" offset="40.92%"/><stop stop-color="#e51e54" offset="53.09%"/><stop stop-color="#ec1e4f" offset="61.58%"/><stop stop-color="#f8e47f" offset="100%"/></linearGradient><linearGradient x1="27.7448264%" y1="80.1483356%" x2="109.998418%" y2="-58.8685377%" id="y"><stop stop-color="#6a3894" offset="0%"/><stop stop-color="#8a2f83" offset="10.58%"/><stop stop-color="#b4256c" offset="26.53%"/><stop stop-color="#d31c5d" offset="40.92%"/><stop stop-color="#e51e54" offset="53.09%"/><stop stop-color="#ec1e4f" offset="61.58%"/><stop stop-color="#f8e47f" offset="100%"/></linearGradient><linearGradient x1="38.2099522%" y1="76.9222738%" x2="91.4001792%" y2="-54.6808405%" id="z"><stop stop-color="#6a3894" offset="0%"/><stop stop-color="#8a2f83" offset="10.58%"/><stop stop-color="#b4256c" offset="26.53%"/><stop stop-color="#d31c5d" offset="40.92%"/><stop stop-color="#e51e54" offset="53.09%"/><stop stop-color="#ec1e4f" offset="61.58%"/><stop stop-color="#f8e47f" offset="100%"/></linearGradient><linearGradient x1="32.7425749%" y1="82.6860743%" x2="87.5792193%" y2="-44.6889925%" id="AA"><stop stop-color="#6a3894" offset="0%"/><stop stop-color="#8a2f83" offset="10.58%"/><stop stop-color="#b4256c" offset="26.53%"/><stop stop-color="#d31c5d" offset="40.92%"/><stop stop-color="#e51e54" offset="53.09%"/><stop stop-color="#ec1e4f" offset="61.58%"/><stop stop-color="#f8e47f" offset="100%"/></linearGradient><linearGradient x1="40.239698%" y1="78.5345965%" x2="84.9077339%" y2="-52.4234045%" id="AB"><stop stop-color="#6a3894" offset="0%"/><stop stop-color="#8a2f83" offset="10.58%"/><stop stop-color="#b4256c" offset="26.53%"/><stop stop-color="#d31c5d" offset="40.92%"/><stop stop-color="#e51e54" offset="53.09%"/><stop stop-color="#ec1e4f" offset="61.58%"/><stop stop-color="#f8e47f" offset="100%"/></linearGradient><linearGradient x1="33.9221333%" y1="87.7230288%" x2="78.7175163%" y2="-34.2446054%" id="AC"><stop stop-color="#6a3894" offset="0%"/><stop stop-color="#8a2f83" offset="10.58%"/><stop stop-color="#b4256c" offset="26.53%"/><stop stop-color="#d31c5d" offset="40.92%"/><stop stop-color="#e51e54" offset="53.09%"/><stop stop-color="#ec1e4f" offset="61.58%"/><stop stop-color="#f8e47f" offset="100%"/></linearGradient><linearGradient x1="41.1273531%" y1="77.8140157%" x2="78.0450137%" y2="-44.1742594%" id="AD"><stop stop-color="#6a3894" offset="0%"/><stop stop-color="#8a2f83" offset="10.58%"/><stop stop-color="#b4256c" offset="26.53%"/><stop stop-color="#d31c5d" offset="40.92%"/><stop stop-color="#e51e54" offset="53.09%"/><stop stop-color="#ec1e4f" offset="61.58%"/><stop stop-color="#f8e47f" offset="100%"/></linearGradient><linearGradient x1="40.8663957%" y1="81.9999823%" x2="80.1135535%" y2="-43.424582%" id="AE"><stop stop-color="#6a3894" offset="0%"/><stop stop-color="#8a2f83" offset="10.58%"/><stop stop-color="#b4256c" offset="26.53%"/><stop stop-color="#d31c5d" offset="40.92%"/><stop stop-color="#e51e54" offset="53.09%"/><stop stop-color="#ec1e4f" offset="61.58%"/><stop stop-color="#f8e47f" offset="100%"/></linearGradient><linearGradient x1="33.9089602%" y1="98.2067328%" x2="77.4770724%" y2="-29.1683334%" id="AF"><stop stop-color="#6a3894" offset="0%"/><stop stop-color="#8a2f83" offset="10.58%"/><stop stop-color="#b4256c" offset="26.53%"/><stop stop-color="#d31c5d" offset="40.92%"/><stop stop-color="#e51e54" offset="53.09%"/><stop stop-color="#ec1e4f" offset="61.58%"/><stop stop-color="#f8e47f" offset="100%"/></linearGradient><linearGradient x1="40.3096598%" y1="85.9808516%" x2="78.4460492%" y2="-51.0210921%" id="AG"><stop stop-color="#6a3894" offset="0%"/><stop stop-color="#8a2f83" offset="10.58%"/><stop stop-color="#b4256c" offset="26.53%"/><stop stop-color="#d31c5d" offset="40.92%"/><stop stop-color="#e51e54" offset="53.09%"/><stop stop-color="#ec1e4f" offset="61.58%"/><stop stop-color="#f8e47f" offset="100%"/></linearGradient><linearGradient x1="32.3761522%" y1="106.137066%" x2="74.7829208%" y2="-27.1471533%" id="AH"><stop stop-color="#6a3894" offset="0%"/><stop stop-color="#8a2f83" offset="10.58%"/><stop stop-color="#b4256c" offset="26.53%"/><stop stop-color="#d31c5d" offset="40.92%"/><stop stop-color="#e51e54" offset="53.09%"/><stop stop-color="#ec1e4f" offset="61.58%"/><stop stop-color="#f8e47f" offset="100%"/></linearGradient><linearGradient x1="39.5067174%" y1="90.205678%" x2="78.1905189%" y2="-48.937198%" id="AI"><stop stop-color="#6a3894" offset="0%"/><stop stop-color="#8a2f83" offset="10.58%"/><stop stop-color="#b4256c" offset="26.53%"/><stop stop-color="#d31c5d" offset="40.92%"/><stop stop-color="#e51e54" offset="53.09%"/><stop stop-color="#ec1e4f" offset="61.58%"/><stop stop-color="#f8e47f" offset="100%"/></linearGradient><linearGradient x1="31.2445969%" y1="113.210071%" x2="72.9101715%" y2="-28.0857674%" id="AJ"><stop stop-color="#6a3894" offset="0%"/><stop stop-color="#8a2f83" offset="10.58%"/><stop stop-color="#b4256c" offset="26.53%"/><stop stop-color="#d31c5d" offset="40.92%"/><stop stop-color="#e51e54" offset="53.09%"/><stop stop-color="#ec1e4f" offset="61.58%"/><stop stop-color="#f8e47f" offset="100%"/></linearGradient><linearGradient x1="40.418512%" y1="97.3747443%" x2="72.374696%" y2="-52.7116547%" id="AK"><stop stop-color="#6a3894" offset="0%"/><stop stop-color="#8a2f83" offset="10.58%"/><stop stop-color="#b4256c" offset="26.53%"/><stop stop-color="#d31c5d" offset="40.92%"/><stop stop-color="#e51e54" offset="53.09%"/><stop stop-color="#ec1e4f" offset="61.58%"/><stop stop-color="#f8e47f" offset="100%"/></linearGradient><linearGradient x1="28.3892543%" y1="127.878742%" x2="69.1643119%" y2="-23.3319716%" id="AL"><stop stop-color="#6a3894" offset="0%"/><stop stop-color="#8a2f83" offset="10.58%"/><stop stop-color="#b4256c" offset="26.53%"/><stop stop-color="#d31c5d" offset="40.92%"/><stop stop-color="#e51e54" offset="53.09%"/><stop stop-color="#ec1e4f" offset="61.58%"/><stop stop-color="#f8e47f" offset="100%"/></linearGradient><linearGradient x1="39.3443593%" y1="105.26627%" x2="68.7440484%" y2="-45.6683751%" id="AM"><stop stop-color="#6a3894" offset="0%"/><stop stop-color="#8a2f83" offset="10.58%"/><stop stop-color="#b4256c" offset="26.53%"/><stop stop-color="#d31c5d" offset="40.92%"/><stop stop-color="#e51e54" offset="53.09%"/><stop stop-color="#ec1e4f" offset="61.58%"/><stop stop-color="#f8e47f" offset="100%"/></linearGradient><linearGradient x1="38.5670026%" y1="109.272229%" x2="67.7549955%" y2="-46.0500516%" id="AN"><stop stop-color="#6a3894" offset="0%"/><stop stop-color="#8a2f83" offset="10.58%"/><stop stop-color="#b4256c" offset="26.53%"/><stop stop-color="#d31c5d" offset="40.92%"/><stop stop-color="#e51e54" offset="53.09%"/><stop stop-color="#ec1e4f" offset="61.58%"/><stop stop-color="#f8e47f" offset="100%"/></linearGradient><linearGradient x1="39.2024762%" y1="117.022289%" x2="65.8853624%" y2="-33.0641099%" id="AO"><stop stop-color="#6a3894" offset="0%"/><stop stop-color="#8a2f83" offset="10.58%"/><stop stop-color="#b4256c" offset="26.53%"/><stop stop-color="#d31c5d" offset="40.92%"/><stop stop-color="#e51e54" offset="53.09%"/><stop stop-color="#ec1e4f" offset="61.58%"/><stop stop-color="#f8e47f" offset="100%"/></linearGradient><linearGradient x1="31.8553225%" y1="87.3329057%" x2="99.2086034%" y2="-50.6906205%" id="AP"><stop stop-color="#6a3894" offset="0%"/><stop stop-color="#8a2f83" offset="10.58%"/><stop stop-color="#b4256c" offset="26.53%"/><stop stop-color="#d31c5d" offset="40.92%"/><stop stop-color="#e51e54" offset="53.09%"/><stop stop-color="#ec1e4f" offset="61.58%"/><stop stop-color="#f8e47f" offset="100%"/></linearGradient><linearGradient x1="24.9913093%" y1="105.66897%" x2="90.1653887%" y2="-33.2013267%" id="AQ"><stop stop-color="#6a3894" offset="0%"/><stop stop-color="#8a2f83" offset="10.58%"/><stop stop-color="#b4256c" offset="26.53%"/><stop stop-color="#d31c5d" offset="40.92%"/><stop stop-color="#e51e54" offset="53.09%"/><stop stop-color="#ec1e4f" offset="61.58%"/><stop stop-color="#f8e47f" offset="100%"/></linearGradient><linearGradient x1="139.779127%" y1="0.614642654%" x2="-149.958651%" y2="198.321967%" id="AR"><stop stop-color="#d4e5ee" offset="0%"/><stop stop-color="#cddfe8" offset="7.22%"/><stop stop-color="#b4cbd7" offset="18.58%"/><stop stop-color="#90abbb" offset="32.67%"/><stop stop-color="#5f8096" offset="48.78%"/><stop stop-color="#486d86" offset="55.37%"/><stop stop-color="#5d7e95" offset="59.41%"/><stop stop-color="#88a3b5" offset="68.5%"/><stop stop-color="#aac1ce" offset="77.34%"/><stop stop-color="#c1d5e0" offset="85.72%"/><stop stop-color="#d0e1ea" offset="93.48%"/><stop stop-color="#d4e5ee" offset="100%"/></linearGradient><linearGradient x1="110.786277%" y1="-267.694984%" x2="29.2961981%" y2="157.981534%" id="AS"><stop stop-color="#d4e5ee" offset="0%"/><stop stop-color="#cddfe8" offset="7.22%"/><stop stop-color="#b4cbd7" offset="18.58%"/><stop stop-color="#90abbb" offset="32.67%"/><stop stop-color="#5f8096" offset="48.78%"/><stop stop-color="#486d86" offset="55.37%"/><stop stop-color="#5d7e95" offset="59.41%"/><stop stop-color="#88a3b5" offset="68.5%"/><stop stop-color="#aac1ce" offset="77.34%"/><stop stop-color="#c1d5e0" offset="85.72%"/><stop stop-color="#d0e1ea" offset="93.48%"/><stop stop-color="#d4e5ee" offset="100%"/></linearGradient><linearGradient x1="103.51575%" y1="-125.978103%" x2="-26.867844%" y2="304.087929%" id="AT"><stop stop-color="#d4e5ee" offset="0%"/><stop stop-color="#cddfe8" offset="7.22%"/><stop stop-color="#b4cbd7" offset="18.58%"/><stop stop-color="#90abbb" offset="32.67%"/><stop stop-color="#5f8096" offset="48.78%"/><stop stop-color="#486d86" offset="55.37%"/><stop stop-color="#5d7e95" offset="59.41%"/><stop stop-color="#88a3b5" offset="68.5%"/><stop stop-color="#aac1ce" offset="77.34%"/><stop stop-color="#c1d5e0" offset="85.72%"/><stop stop-color="#d0e1ea" offset="93.48%"/><stop stop-color="#d4e5ee" offset="100%"/></linearGradient><linearGradient x1="154.582009%" y1="-23.6996073%" x2="-217.942547%" y2="218.837013%" id="AU"><stop stop-color="#d4e5ee" offset="0%"/><stop stop-color="#cddfe8" offset="7.22%"/><stop stop-color="#b4cbd7" offset="18.58%"/><stop stop-color="#90abbb" offset="32.67%"/><stop stop-color="#5f8096" offset="48.78%"/><stop stop-color="#486d86" offset="55.37%"/><stop stop-color="#5d7e95" offset="59.41%"/><stop stop-color="#88a3b5" offset="68.5%"/><stop stop-color="#aac1ce" offset="77.34%"/><stop stop-color="#c1d5e0" offset="85.72%"/><stop stop-color="#d0e1ea" offset="93.48%"/><stop stop-color="#d4e5ee" offset="100%"/></linearGradient><linearGradient x1="99.2112083%" y1="-20.8557126%" x2="-47.2872124%" y2="216.169014%" id="AV"><stop stop-color="#d4e5ee" offset="0%"/><stop stop-color="#cddfe8" offset="7.22%"/><stop stop-color="#b4cbd7" offset="18.58%"/><stop stop-color="#90abbb" offset="32.67%"/><stop stop-color="#5f8096" offset="48.78%"/><stop stop-color="#486d86" offset="55.37%"/><stop stop-color="#5d7e95" offset="59.41%"/><stop stop-color="#88a3b5" offset="68.5%"/><stop stop-color="#aac1ce" offset="77.34%"/><stop stop-color="#c1d5e0" offset="85.72%"/><stop stop-color="#d0e1ea" offset="93.48%"/><stop stop-color="#d4e5ee" offset="100%"/></linearGradient><linearGradient x1="116.137181%" y1="-19.2975915%" x2="-120.923901%" y2="219.080955%" id="AW"><stop stop-color="#d4e5ee" offset="0%"/><stop stop-color="#cddfe8" offset="7.22%"/><stop stop-color="#b4cbd7" offset="18.58%"/><stop stop-color="#90abbb" offset="32.67%"/><stop stop-color="#5f8096" offset="48.78%"/><stop stop-color="#486d86" offset="55.37%"/><stop stop-color="#5d7e95" offset="59.41%"/><stop stop-color="#88a3b5" offset="68.5%"/><stop stop-color="#aac1ce" offset="77.34%"/><stop stop-color="#c1d5e0" offset="85.72%"/><stop stop-color="#d0e1ea" offset="93.48%"/><stop stop-color="#d4e5ee" offset="100%"/></linearGradient><linearGradient x1="107.111596%" y1="-1209.88682%" x2="17.8073995%" y2="686.308584%" id="AX"><stop stop-color="#d4e5ee" offset="0%"/><stop stop-color="#cddfe8" offset="7.22%"/><stop stop-color="#b4cbd7" offset="18.58%"/><stop stop-color="#90abbb" offset="32.67%"/><stop stop-color="#5f8096" offset="48.78%"/><stop stop-color="#486d86" offset="55.37%"/><stop stop-color="#5d7e95" offset="59.41%"/><stop stop-color="#88a3b5" offset="68.5%"/><stop stop-color="#aac1ce" offset="77.34%"/><stop stop-color="#c1d5e0" offset="85.72%"/><stop stop-color="#d0e1ea" offset="93.48%"/><stop stop-color="#d4e5ee" offset="100%"/></linearGradient><linearGradient x1="103.166067%" y1="-263.872807%" x2="33.4422203%" y2="149.160907%" id="AY"><stop stop-color="#d4e5ee" offset="0%"/><stop stop-color="#cddfe8" offset="7.22%"/><stop stop-color="#b4cbd7" offset="18.58%"/><stop stop-color="#90abbb" offset="32.67%"/><stop stop-color="#5f8096" offset="48.78%"/><stop stop-color="#486d86" offset="55.37%"/><stop stop-color="#5d7e95" offset="59.41%"/><stop stop-color="#88a3b5" offset="68.5%"/><stop stop-color="#aac1ce" offset="77.34%"/><stop stop-color="#c1d5e0" offset="85.72%"/><stop stop-color="#d0e1ea" offset="93.48%"/><stop stop-color="#d4e5ee" offset="100%"/></linearGradient><linearGradient x1="120.64823%" y1="-176.666973%" x2="27.5178514%" y2="107.118095%" id="AZ"><stop stop-color="#d4e5ee" offset="0%"/><stop stop-color="#cddfe8" offset="7.22%"/><stop stop-color="#b4cbd7" offset="18.58%"/><stop stop-color="#90abbb" offset="32.67%"/><stop stop-color="#5f8096" offset="48.78%"/><stop stop-color="#486d86" offset="55.37%"/><stop stop-color="#5d7e95" offset="59.41%"/><stop stop-color="#88a3b5" offset="68.5%"/><stop stop-color="#aac1ce" offset="77.34%"/><stop stop-color="#c1d5e0" offset="85.72%"/><stop stop-color="#d0e1ea" offset="93.48%"/><stop stop-color="#d4e5ee" offset="100%"/></linearGradient><linearGradient x1="164.291094%" y1="-159.745011%" x2="3.32369259%" y2="104.282196%" id="Aa"><stop stop-color="#d4e5ee" offset="0%"/><stop stop-color="#cddfe8" offset="7.22%"/><stop stop-color="#b4cbd7" offset="18.58%"/><stop stop-color="#90abbb" offset="32.67%"/><stop stop-color="#5f8096" offset="48.78%"/><stop stop-color="#486d86" offset="55.37%"/><stop stop-color="#5d7e95" offset="59.41%"/><stop stop-color="#88a3b5" offset="68.5%"/><stop stop-color="#aac1ce" offset="77.34%"/><stop stop-color="#c1d5e0" offset="85.72%"/><stop stop-color="#d0e1ea" offset="93.48%"/><stop stop-color="#d4e5ee" offset="100%"/></linearGradient></defs><symbol id="Ab" overflow="visible"><g fill-rule="nonzero"><path d="M63.709 15.488l-.05-.024v-.148l-.075-.198-.15-.173-.2-.124-.024-.049-.15-.148-.226-.124-.2-.074h-.05l-.2-.173-.274-.148-.299-.148-.324-.099h-.05l-.25-.272-.299-.247-.299-.148-.299-.074h-.05l-.274-.198-.449-.173-.2-.024-.274-.173-.299-.124-.274-.049-.299-.024-.299.024-.226.049-.125-.222-.374-.247-.474-.099h-.424l-.524.099-.15.049-.374-.148-.424-.124-.449-.049h-.424l-.449.049h-.05l-.449-.173-.474-.124-.474-.074-.244-.024-.399-.371-.449-.321-.449-.222-.399-.124-.5-.024-.226.024-.2-.173-.349-.148-.424-.049-.244.049-.349-.124-.374-.099-.349-.049h-.125l-.524-.198-.649-.173-.599-.049h-.075l-.549-.321-.624-.148h-.424l-.924-.223-.599-.049h-.2l-.299-.297-.424-.247-.474-.124-.474.049-.299.074-.399-.074-.424-.024-.5.024h-.024V7.85l-.75-.173-.699-.099-.649-.024-.224.024v-.024l-.5-.074-.5-.049h-.05l-.549-.222-.574-.148-.524-.074h-.374l-.549-.198-.449-.099-.474-.024h-.075l-.524-.346-.5-.198-.374-.049-.399-.198-.599-.148-.524.024-.524-.247-.549-.124h-.274l-.549-.297-.549-.148-.549-.024-.1.024-.724-.372-.549-.198-.574-.049h-.024l-.299-.173-.324-.148-.349-.099-.374-.024-.299.024-.349-.247-.424-.173-.474-.074-.399.024-.474.099-.05.024-.474-.222-.5-.124-.474-.024-.374-.247-.399-.148-.424-.049-.399.049-.349.099-.274-.272-.349-.223-.424-.074-.374.074-.274.124-.175-.124-.175-.074-.2-.074-.15-.024-.224.024-.226.074-.226.148-.05.049-.424-.099-.424.024-.374.124-.299.222-.244.297-.175.371-.125.396-.1.427-.05.427.024 1.879-.724-.272.024-.272.05-.297.05-.643.05-.594-.075-.89-.078-.261-.075-.247-.024-.099.024-.074.075-.247.1-.247.075-.247.125-.247-.424.396-.2.173-.075-.099-.175-.173-.2-.148.1.594.05.198-.125.173-.075.173-.075-.223-.05-.173-.05-.198v-.173l-.024-.198-.024-.173-.024-.198V1.69l.024-.173.05-.346.05-.173.05-.148-.226.297-.175.321-.125.321-.075.321-.024.346v.346l.05.346.075.346.075.272-.125-.074-.125-.173-.299-.396-.125-.222-.125-.247-.1-.297-.075-.346-.024-.396-.274.247-.15.272-.075.297v.297l.05.297.125.321.15.321.15.247-.274-.049-.299-.024.2.124.399.247.349.247.15.148.25.272.244.247.226.247.2.223.175.198.2.247.05.074C6.99 4.955 3.845 3.57 0 1.74.774 3.001 3.62 4.312 4.793 5.202c1.248.668 2.971 1.385 4.468 1.954l-.324.074-.324.049-.125.024h-.076l-.449.049h-.226l-.226.024h-.449l-.899-.099-.449-.099.25.173.244.148.25.099.25.074.15.024-.324.099-.324.124-.399.223-.299.198-.25.198-.226.247-.2.247-.15.297-.1.346.1-.124.374-.371.599-.396.175-.074.15-.074.175-.049.175-.074.349-.099.15-.024.175-.024.299-.124.324-.173.649-.396.299-.173.15-.049h.024l-.224.124-.226.148-.244.148-.25.173-.226.148-.244.148-.226.148-1.248.742-.299.198-.274.148.274.024.274-.024.25-.049.244-.074.25-.099-.075.074-.175.272-.125.297-.05.321.05.321.125.321.2-.372.2-.297.2-.272.2-.222.2-.173.449-.297.226-.124.125-.074-.024.024-.075.321-.05.396.024.427.075.469.15.544.05-.272.05-.247.226-.742.1-.223.1-.247.125-.247.25-.445.125-.247.125-.223.15-.222.299-.494.125-.198c.2.074.374.148.549.198l-.324.544-.299.594-.25.717-.1.396-.024.372.024.372.075.321.175.346.274.297.399.223.399.124.1.223.226.297.226.198.2.148.226.124.226.074.2.024h.244l.224.297.324.247.374.148.449.024.349-.099.05.074.324.297.324.223.324.148.449.074.274-.024.274.198.424.173.374.099.274.198.449.198.574.124.524.024.024.024.399.297.399.223.374.124.474.049.424-.074.175.099.324.148.349.074.324.024.299-.049.1.074.524.173.599.074.649-.024.125.074.524.173.524.074.699-.024.449.148.549.074.524-.024.175.099.524.198.599.074.599-.074v-.024l.299.074h.5l.549-.124.324.124.424.099.424.049h.524l.125.049.5.148.524.099.574.024.574-.049v-.024l.299.074.474.074.474.024.024-.049.324.099.624.099.674.024.724-.024.1.024.449.099.424.049.424.024.024.024.399.198.474.124h.424l.449-.099.374-.223.424.124.574.049h.599l.125.049.599.099.574-.049.599-.198.5.049.624-.024.474-.074.274.049.349.024.774-.074.25.099.374.049.324-.074.25-.124h.024l.399.124.424.074h.424l.449-.099.474-.222.449-.272.349.024.474-.024.399-.049.226.074.399.074.399.049.424-.024.399-.074.075.024.5.173.449.099h.399l.399-.124.2-.198.1.024.274.074.274.049.299-.024.274-.049.2-.074.349.024.374-.049.349-.148h.05l.349-.024.299-.049.349-.148.25-.173h.324l.299-.049.274-.074.299-.124h.125l.175-.024.175-.074.05-.049.2-.024.226-.099.1-.173.024-.124h.075l.226-.222.024-.099.05.024.024-.618-.299-.346zM10.311 6.284l-.374-.148-.024-.049v-.049l.024.049-.024-.074v-.099l.075-.89.024-.272.024-.198.024.222.024.247.2.989.024.272zm-1.049.89h.024l-.125.074h-.15l.075-.049.175-.024zm-.649.693l.226-.223.226-.247.1-.099.15-.074-.1.024.05-.049c.125.049.274.099.399.148l-.15.099-.849.427-.175.074.125-.074zm1.298-.346l-.125.124-.175.099-.15.099.25-.494c.1.049.2.074.299.099l-.1.074z" fill="#dcddde" stroke="none"/><g stroke="#231f20" stroke-linejoin="miter"><path d="M63.957 15.427c-5.151-.7-24.203-1.675-32.678-3.05-6.826-1.125-13.501-3.15-19.877-5.275-1.65-.55-4.551-1.675-6.425-2.7C3.8 3.501.95 2.15.175.9c12.352 5.851 17.326 7.452 31.804 10.402 5.876 1.201 27.228 2.926 31.979 4.126h0z" fill="#231f20" stroke-width=".596"/><g stroke-width=".254"><path d="M45.705 17.701h0l-.55.2-.55.024-.524-.075-.55-.226-.524-.274-.524-.4-.5-.425-.951-.951-.45-.475-.425-.475-.375-.425-.375-.375-.325-.274-.3-.2-.244-.075h.2l.5.05.274.024.244.024.274.024.244.024.226.024.375.35.35.3.3.325.274.325.55.6.244.3.244.274.274.274.274.244.3.244.325.226.35.226.4.2.425.2.5.15z" fill="url(#A)"/><path d="M47.506 17.627h0l-.625.1-.6.024-.55-.05-.524-.15-.5-.2-.425-.244-.45-.274-.375-.35-.4-.35-.375-.375-.7-.8-.375-.4-.35-.375-.375-.375-.375-.325h.3l.15.024h.15l.175.024.15.024.175.024h.15l.15.024.35.05h.175l.175.024h.35l.175.024.125.2.15.244.226.3.2.3.274.325.274.35.3.35.3.325.625.625.35.274.325.226.3.2.325.125.325.075h.274z" fill="url(#B)"/><path d="M48.707 17.651h0l-.375.024-.35.05-.325-.024-.325-.05-.35-.075-.325-.125-.3-.175-.35-.226-.325-.226-.35-.3-.325-.35-.35-.375-.375-.45-.375-.5-.4-.55-.4-.6h.244l.226.024.244.024.45.05.244.024h.524l.244.226.2.244.45.5.2.244.226.274.2.226.226.274.2.244.45.5.226.226.244.226.244.2.244.226.274.2z" fill="url(#C)"/><path d="M49.987 17.576h0l-.274.15-.325.05-.3-.024-.325-.125-.325-.2-.65-.55-.35-.35-.65-.75-.3-.375-.325-.375-.274-.35-.274-.325-.5-.5 1.55.15.175.226.2.226.175.244.524.675.175.244.8.9.244.226.226.2.244.226.55.4z" fill="url(#D)"/><path d="M52.556 17.246h0l-.45.274-.425.2-.425.1h-.4l-.4-.075-.375-.15-.375-.2-.35-.244-.7-.65-.325-.4-.35-.4-.325-.425-.3-.425-.325-.45-.3-.4.274.024.2.024h.15l.244.05h.325l.244.024.55.75.274.35.3.3.6.55.3.226.3.2.274.175.3.175.274.1.244.1.274.1.226.05.244.024.2.024z" fill="url(#E)"/><path d="M53.906 17.151h0l-.475.075-.45.024-.425-.024-.425-.075-.4-.075-.4-.125-.35-.175-.35-.2-.35-.226-.325-.244-.325-.274-.3-.3-.3-.325-.55-.7-.244-.375h.274l.325.024.3.05h.325l.244.024.226.024h.15l.075.024.375.375.15.175.2.2.226.2.244.244.274.226.3.244.274.226.325.244.325.2.35.2.35.175.35.15z" fill="url(#F)"/><path d="M55.68 17.245h0l-.375.075-.375.024-.4-.024-.4-.075-.4-.125-.75-.35-.375-.244-.7-.5-.325-.274-.325-.3-.875-.875-.244-.3h.175l.226.024h.475l.244.024.226.024.2.024.15.024v.024l.05.075.15.125.2.15.244.226.3.226.65.5.35.244.35.274.35.226.3.226.3.2.274.175.2.1.125.075z" fill="url(#G)"/><path d="M57.681 17.245h0l-.244.226-.3.1h-.375l-.425-.1-.475-.175-.475-.244-.5-.274-.5-.325-.5-.35-.9-.7-.375-.3-.325-.274-.244-.226-.175-.125-.075-.075.2.024h.2l.226.024.2.024.244.024h.226l.226.024h.244l.274.175.244.15.274.175.75.524.274.175.244.175.244.2.75.524.274.15.244.15.244.175.274.15z" fill="url(#H)"/><path d="M59.13 17.276h0l-.244.075-.244.05-.244.024-.244-.05-.244-.075-.244-.1-.274-.15-.3-.175-.325-.2-.325-.226-.375-.274-.4-.274-.45-.3-.475-.325-.524-.35-.575-.375.226.024h.524l.244.024h.226l.175.024.125.024h.024l.244.244.175.15.226.2.244.226.244.2.325.244.3.226.325.226.325.2.325.226.325.175.325.125.3.1.274.075z" fill="url(#I)"/><path d="M60.182 17.101h0l-.325.15-.35.05-.4-.024-.375-.1-.425-.15-.375-.2-.425-.226-.375-.244-.7-.55-.325-.244-.274-.274-.244-.226-.2-.175-.15-.125-.075-.1.226.024h.226l.226.024.2.024.226.024h.2l.244.024.226.024.175.15.2.175.15.15.2.175.2.2.175.175.2.175.226.175.4.3.226.15.2.125.226.125.226.1.226.075.226.05z" fill="url(#J)"/><path d="M61.483 16.702h0l-.3.2-.3.125-.274.075h-.3l-.3-.05-.274-.1-.3-.125-.274-.175-.3-.175-.274-.244-.274-.226-.825-.75-.244-.244-.274-.226h.175l.15.024.4.05.226.024h.226l.5.05.05.175.1.175.125.15.125.175.15.15.15.125.15.15.4.244.2.1.226.1.2.075.244.05.226.05.5.05z" fill="url(#K)"/><path d="M62.633 16.476h0l-.244.1-.274.075-.274.05h-.3l-.6-.05-.325-.1-.3-.075-.3-.15-.274-.125-.244-.175-.226-.175-.2-.2-.175-.226-.125-.244-.1-.244.175.024h.175l.2.024.175.024h.2l.2.024.226.024h.244l.1.15.125.15.1.125.226.226.15.1.125.1.125.075.3.15.35.15.35.1.226.05.2.05z" fill="url(#L)"/><path d="M63.233 16.27h0l-.1.1-.125.05-.175.024h-.175l-.4-.05-.244-.075-.226-.075-.226-.1-.244-.125-.226-.125-.4-.3-.175-.175-.15-.175-.1-.2.125.024h.125l.125.024.15.024h.125l.125.024h.2v.05l.125.125.226.15.274.2.35.175.35.2.35.15.325.075z" fill="url(#M)"/><path d="M63.632 15.876h0l-.024.2-.075.125-.1.05-.175.05-.175-.05-.226-.05-.226-.1-.45-.244-.226-.15-.226-.125-.175-.15-.15-.1-.125-.1-.075-.05v-.024l1.125.125.1.05.125.075.175.1.2.075.2.1.2.075.175.075.125.05z" fill="url(#N)"/><path d="M62.332 15.276h.244l.226.024.2.024h.175l.175.024h.2l.2.05.2.024-.024.274-.15.15h-.2l-.244-.075-.274-.15-.274-.125-.244-.15-.2-.075z" fill="url(#O)"/><path d="M62.382 15.126h0l.244.05.2.024.2.05.2.024.175.05.175.024.4.1.024-.3-.125-.226-.2-.05-.274-.024-.3.05-.3.075-.244.1-.175.05z" fill="url(#P)"/><path d="M47.231 9.2h0l-.65-.226-.6-.175-.575-.05-.55.05-.524.1-.475.175-.45.244-.45.274-.45.325-.425.35-.425.375-.4.375-.4.35-.425.35-.4.35-.425.3.15.024.175.024h.15l.15.05h.15l.175.024h.175l.15.024h.15l.524.075h.175l.524.075.15-.2.2-.244.2-.274.274-.3.274-.325.3-.325.35-.325.325-.3.375-.3.35-.244.375-.226.375-.2.35-.15.375-.075.35-.024.35.05z" fill="url(#Q)"/><path d="M48.33 9.45h0l-.375-.125-.35-.075-.325-.075-.35-.024-.35.024-.35.075-.325.1-.35.175-.375.2-.35.244-.375.325-.4.35-.425.425-.425.475-.45.55-.475.6h.244l.244.05h.2l.226.024.2.024.2.05.244.024.3.05.274-.226.226-.226.274-.244.226-.244.5-.5.226-.244.244-.226.244-.244.274-.2.226-.226.274-.226.274-.2.3-.15.274-.15.325-.15z" fill="url(#R)"/><path d="M49.531 9.776h0l-.274-.226-.3-.125-.325-.024-.35.075-.35.15-.375.2-.375.244-.75.65-.75.7-.35.375-.9.9-.274.226 1.598.18.2-.226.2-.244.175-.226.226-.226.2-.244.2-.226.226-.244.2-.226.226-.2.226-.226.244-.2.274-.2.55-.35.325-.15.3-.125z" fill="url(#S)"/><path d="M51.937 10.801h0l-.425-.425-.425-.3-.425-.2-.4-.125-.4-.024-.4.075-.4.15-.375.175-.375.274-.375.3-.375.35-.35.375-.35.4-.7.85-.35.4.274.024.226.024h.2l.175.024.175.05.175.024.226.024.274.05.3-.4.274-.35.6-.6.325-.226.274-.226.274-.175.3-.125.274-.125.244-.1.3-.05.244-.075.5-.05h.475z" fill="url(#T)"/><path d="M53.632 11.175h0L53.156 11l-.45-.125-.45-.075-.425-.024h-.425l-.8.15-.375.125-.375.175-.35.2-.375.226-.325.274-.35.274-.3.325-.325.35-.3.375.3.05.7.1.35.024.325.05.244.024.2.024h.075l.024-.024.075-.075.375-.375.2-.175.226-.175.244-.226.274-.175.274-.2.325-.2.7-.35.375-.15.4-.125.4-.1z" fill="url(#U)"/><path d="M55.782 11.451h0l-.375-.15-.4-.125-.425-.05h-.4l-.425.05-.425.075-.4.15-.425.15-.8.4-.75.5-.325.244-.35.274-.3.274-.274.274.2.024.226.024.244.024.274.024.3.05.226.024h.4v-.024l.05-.075.375-.244.244-.15.325-.2.7-.4 1.125-.6.35-.175.325-.15.274-.1.244-.075.175-.05z" fill="url(#V)"/><path d="M57.832 11.875h0l-.2-.325-.3-.2-.4-.05h-.425l-.475.1-.524.15-.55.226-.55.244-.55.274-.5.274-.5.3-.425.274-.375.226-.274.175-.175.125-.1.05.2.05.75.075.55.05.274.05.244.024.55-.244.274-.15.244-.15.274-.125.244-.15.55-.3.244-.125.274-.15.274-.125.244-.125.274-.125.274-.1.274-.125.274-.1z" fill="url(#W)"/><path d="M60.432 12.576h0l-.325-.244-.35-.125-.375-.05h-.425l-.425.075-.425.125-.425.15-.425.2-.375.226-.4.2-.35.244-.3.2-.274.2-.226.175-.175.1-.075.075.45.05.2.05h.175l.4.05.45.05.4-.244.226-.175.675-.45.244-.175.226-.15.226-.125.5-.244.226-.075.244-.075.244-.05h.226l.226.024z" fill="url(#X)"/><path d="M59.482 12.15h0l-.244-.175-.274-.1-.244-.075-.244-.024-.244.024-.3.05-.3.1-.325.125-.35.15-.35.175-.4.226-.45.226-.476.244-.524.274-1.201.575.75.075.274.05.226.024.175.024.15.024.05-.024.024-.024.1-.075.125-.125.175-.125.226-.15.274-.175.274-.2.3-.175.325-.2.35-.2.35-.15.375-.15.35-.125.375-.075.35-.024h.35z" fill="url(#Y)"/><path d="M61.606 13.301h0l-.274-.274-.274-.226-.274-.15-.274-.075-.3-.024-.3.024-.325.075-.3.1-.325.175-.3.15-.65.4-.325.226-.3.2-.3.226-.3.2.15.024h.2l.226.05.226.024.244.024.274.05.226.024.244.024.1-.2.1-.15.125-.175.274-.274.35-.2.4-.15.226-.075.2-.024.5-.05h.226l.244.024.274.024z" fill="url(#Z)"/><path d="M63.407 14.277h0l-.075-.125-.125-.1-.15-.1-.175-.05-.226-.05h-.725l-.244.05-.5.15-.226.1-.226.125-.2.15-.175.15-.125.175.125.024.15.024.175.024.15.05h.15l.125.024h.1l.075-.024.125-.1.244-.125.3-.125.325-.1.375-.125.375-.05.375.024z" fill="url(#a)"/><path d="M63.764 14.876h0v-.244l-.05-.175-.1-.1-.175-.075-.175-.05-.45.05-.274.075-.244.075-.244.1-.226.075-.2.1-.175.075-.15.05-.075.075h-.024l1.175.2.1-.024.15-.05.175-.05.2-.075.2-.024.226-.05h.175l.175.05z" fill="url(#b)"/><path d="M62.782 13.901h0l-.226-.2-.244-.15-.274-.125-.3-.1-.325-.05-.3-.05h-.325l-.325.05-.3.05-.3.1-.55.244-.45.4-.15.226-.125.244.35.05.6.075.45.05.244.05.1-.15.1-.1.1-.1.15-.1.125-.1.175-.075.15-.075.175-.075.175-.05.2-.05.35-.05h.575l.175.05z" fill="url(#c)"/><path d="M10.926 6.925h0l-.024.05-.075.1-.1.2-.125.226-.15.274-.15.325-.244.7-.075.35-.024.35v.35l.075.325.175.3.244.244.35.2.45.15-.075-.226-.1-.45-.024-.274-.024-.244V9.6l.1-1.1.05-.274.05-.244.1-.45.075-.226.05-.175-.075-.05h-.05l-.075-.024-.05-.024-.075-.024-.05-.024-.15-.05z" fill="url(#d)"/><path d="M11.426 7.126h0l-.2.8-.15.725-.075.625v.55l.024.5.075.4.125.35.125.3.175.226.2.175.175.15.2.1.2.075.175.024h.3L12.7 11.9l-.1-.226-.075-.274-.05-.244-.05-.3-.05-.274-.05-.3-.024-.3-.024-.325v-.3l.024-.325.024-.3.05-.325.05-.3.075-.3.1-.3-.175-.075-.35-.1-.15-.05-.125-.05-.15-.05-.125-.024-.1-.024z" fill="url(#e)"/><path d="M12.602 7.5h0l-.075.274-.1.375-.05.4-.024.45-.024.5v.5l.05.5.075.475.1.45.125.425.2.35.226.3.274.226.325.1.35.024.425-.125-.15-.244-.175-.274-.125-.3-.125-.274-.075-.3-.1-.3-.1-.6-.05-.325v-.625l.024-.3.024-.325.05-.3.15-.65-.15-.05-.35-.1-.175-.075-.175-.05-.125-.05-.15-.05-.1-.024z" fill="url(#f)"/><path d="M16.303 13.527h0l-.375.024-.4-.05-.325-.15-.3-.2-.3-.274-.244-.325-.2-.375-.175-.425-.15-.45-.125-.5-.075-.475-.024-.5v-.5l.05-.5.075-.475.125-.45.175.05.15.075.175.024.175.075.175.05.2.05.175.075.175.05v.65l.024.375v.375l.05.8.024.425.05.4.075.4.05.35.075.35.1.325.125.244.15.226.15.15.175.1z" fill="url(#g)"/><path d="M15.276 8.35h0l.15.075.15.05.125.024.15.024.125.05.3.1.125.05.05.6.024.35v1.125l.024.4v.375l.05.375.024.375.075.35.075.325.244.6.175.226.2.175-.425-.1-.35-.125-.3-.226-.244-.226-.2-.274-.15-.325-.125-.35-.075-.35-.075-.425-.05-.425v-.425l-.024-.475v-.45l-.024-.475v-.5l-.024-.5z" fill="url(#h)"/><path d="M19.127 14.576h0l-.575-.024-.5-.125-.4-.175-.325-.244-.274-.325-.2-.375-.15-.4-.1-.45-.1-.951-.024-.5V9.582l-.024-.45-.024-.4.15.05.15.024.125.05.3.1.125.024.15.05.175.024-.024.05-.024.1-.024.175-.05.2-.024.244-.024.3-.024.325.024.375.024.4.075.45.3.9.226.5.3.5.35.5.425.5z" fill="url(#i)"/><path d="M21.127 15.201h0l-.4.075-.4-.024-.375-.125-.375-.226-.375-.274-.35-.325-.3-.4-.3-.45-.244-.5-.226-.524-.175-.55-.125-.55-.05-.575-.024-.575.05-.55.125-.575 1.375.45v.226l-.024.274.024.3.024.35.05.375.075.4.05.4.244.85.35.8.226.4.226.375.274.35.3.325.35.274z" fill="url(#j)"/><path d="M18.928 9.476h0l.226.075.274.05.3.125.325.075.6.2.274.05.2.05.05.7.075 1.125.05.4.024.375.15.75.075.35.125.35.125.3.15.325.4.5.244.226-.3.024h-.3l-.3-.075-.3-.125-.325-.2-.3-.226-.274-.3-.3-.35-.274-.4-.226-.475-.226-.5-.175-.575-.15-.625L19.02 11l-.075-.75-.024-.774z" fill="url(#k)"/><path d="M24.503 15.783h0l-.65.024-.55-.05-.475-.15-.375-.244-.325-.3-.274-.375-.175-.4-.15-.475-.125-.45-.075-.524-.024-.5-.05-.475-.024-.5-.024-.45-.024-.425-.05-.375.2.024.35.1.15.05.175.05.15.05.2.05.226.05.05.4.024.375.1.75.1.7.075.35.075.325.1.325.125.325.3.6.2.3.226.3.55.55z" fill="url(#l)"/><path d="M26.277 16.101h0l-.575.024-.524-.075-.45-.15-.4-.244-.325-.3-.3-.375-.226-.425-.2-.45-.175-.45-.125-.5-.125-.475-.05-.5-.075-.475-.1-.85-.024-.35.2.05.175.05.15.05.175.024.15.05.15.024.4.1.075.575.1.524.1.5.1.475.125.4.125.425.15.35.15.325.125.3.175.274.175.244.15.2.175.226.175.15.2.15.175.125z" fill="url(#m)"/><path d="M27.928 16.326h0l-.55.024-.5-.075-.425-.15-.4-.244-.35-.3-.3-.35-.274-.4-.226-.45-.2-.45-.175-.475-.125-.475-.1-.475-.125-.45-.05-.45-.075-.4-.05-.35.175.05.175.024.524.15.175.024.35.1.024.274.05.3.05.325.1.35.1.375.45 1.125.2.4.4.7.226.3.226.325.226.244.244.226.226.175z" fill="url(#n)"/><path d="M29.754 16.651h0l-.575.075-.524-.075-.475-.175-.425-.3-.425-.375-.35-.425-.6-1-.226-.55-.226-.524-.175-.5-.125-.475-.1-.4-.075-.35-.05-.226v-.15l.226.024.2.05.2.075.226.024.2.075.175.024.2.05.175.024.075.244.075.3.1.325.1.375.244.8.3.85.175.4.4.75.226.3.226.274.244.226.274.175.3.075z" fill="url(#o)"/><path d="M31.079 16.576h0l-.524.125h-.45l-.425-.1-.4-.2-.35-.274-.3-.35-.274-.4-.244-.45-.2-.45-.2-.475-.125-.5-.15-.45-.125-.45-.075-.4-.1-.35-.075-.274.175.05h.15l.15.024.125.024.15.05.125.024.244.05.05.325.15.7.1.325.1.35.15.35.125.325.175.3.175.325.45.6.226.244.274.274.274.226.325.226.325.2z" fill="url(#p)"/><path d="M32.753 16.851h0-.45l-.425-.05-.4-.1-.4-.15-.35-.2-.375-.244-.325-.3-.325-.325-.274-.35-.244-.4-.244-.425-.2-.45-.175-.5-.15-.5-.125-.524-.1-.524.2.024.175.024.2.05.2.024.175.05.175.024.2.024.175.05.1.3.05.325.1.3.075.325.075.3.1.3.244.6.15.3.175.3.226.3.244.274.3.274.35.3.4.3.475.274z" fill="url(#q)"/><path d="M35.104 17.127h0l-.575.024-.55-.024-.5-.075-.5-.15-.45-.2-.425-.244-.375-.274-.35-.35-.325-.375-.3-.4-.244-.45-.226-.45-.2-.5-.15-.5-.125-.524-.075-.524.15.024.175.05.524.075.2.05.175.024.2.05.05.35.1.375.1.35.15.35.175.35.2.35.226.35.226.325.274.3.3.3.3.274.325.274.35.226.375.226.8.35z" fill="url(#r)"/><path d="M36.404 17.245h0l-.5-.024-.45-.075-.475-.1-.45-.175-.85-.45-.375-.274-.375-.325-.325-.35-.325-.375-.274-.425-.244-.425-.2-.45-.175-.45-.15-.475-.075-.5.15.024h.15l.125.024.15.024h.125l.15.024.175.05.2.024.2.425.35.75.15.35.175.35.35.6.175.274.226.274.226.244.244.244.3.244.325.226.4.244.4.226.5.226z" fill="url(#s)"/><path d="M38.729 17.402h0l-.725.024-.65-.024-.6-.1-.55-.15-.524-.226-.45-.274-.425-.3-.375-.35-.35-.375-.325-.4-.274-.425-.5-.9-.226-.45-.2-.475-.2-.45.125.024.175.024.45.05.226.05.2.024.175.024.15.024.35.8.226.4.226.35.244.35.244.325.274.3.3.3.65.55.35.244.375.244.375.2.4.226.4.175.45.175z" fill="url(#t)"/><path d="M40.105 17.602h0-.375l-.425-.075-.425-.1-.45-.15-.45-.2-.45-.226-.475-.274-.45-.3-.425-.35-.425-.375-.4-.4-.375-.45-.325-.45-.3-.475-.274-.5-.226-.524.9.1h.2l.175.05.15.024.075.05.274.2.244.2.274.274.274.244.274.3.3.3.3.325.274.325.6.65.325.325.3.325.975.9.325.244z" fill="url(#u)"/><path d="M42.23 17.601h0l-.375.244-.4.1h-.375l-.425-.1-.4-.2-.4-.274-.425-.35-.425-.4-.85-.9-.475-.5-.45-.5-.9-.951-.475-.45-.475-.4h.175l.175.05h.226l.226.05.226.024.244.05.2.024.2.05.35.325.375.325.7.7.325.35.35.35.325.35.65.65.325.3.3.244.3.226.3.2.3.175.3.15.274.075z" fill="url(#v)"/><path d="M43.88 17.801h0-.6l-.55-.075-.524-.125-.5-.2-.45-.226-.425-.3-.4-.325-.375-.35-.375-.375-.375-.4-.35-.375-.35-.425-.75-.8-.8-.7h.15l.175.024.2.024.45.05h.175l.15.024h.075l.244.05.244.125.244.15.244.226.274.274.274.3.3.325.274.35.35.35.325.375.375.375.4.35.425.375.45.325.475.325.524.274z" fill="url(#w)"/><path d="M11.476 5.801h0v-.05l-.024-.175v-.244l-.024-.3-.024-.35.05-.8.024-.425.1-.4.1-.375.15-.35.226-.274.244-.2.325-.1.375-.024.45.125-.125.125-.15.175-.244.45-.1.274-.1.244-.3.9-.226.9-.05.3-.05.274-.05.244-.05.226h-.075l-.05-.024-.075-.024-.05-.024-.05-.024-.226-.075z" fill="url(#x)"/><path d="M12.001 6.025h0l.2-.951.2-.8.2-.675.2-.575.2-.45.226-.375.2-.244.175-.2.2-.125.175-.05.2-.024.15.024.175.05.15.075.125.1.125.075-.226.2-.2.226-.175.2-.35.45-.3.5-.125.274-.244.55-.125.3-.1.3-.075.325-.1.325-.075.325-.075.35-.175-.024h-.125l-.15-.075h-.075l-.05-.024-.05-.024-.1-.024z" fill="url(#y)"/><path d="M12.726 6.301h0l.05-.35.075-.4.125-.425.15-.475.175-.475.226-.475.226-.45.274-.425.274-.375.274-.325.325-.244.3-.15.35-.05.325.05.325.175.325.35-.244.175-.244.226-.675.675-.175.244-.175.274-.175.244-.15.3-.125.3-.15.3-.2.65-.075.35-.075.375-.05.375-.15-.05-.175-.05-.2-.075-.175-.05-.35-.15-.125-.05-.1-.024z" fill="url(#z)"/><path d="M18.428 2.475h0l-.35-.226-.35-.125-.375-.05-.35.05-.375.1-.35.2-.325.244-.325.325-.274.35-.3.4-.244.45-.226.475-.175.475-.15.524-.125.524-.05.55.175.05.175.024.175.075.175.05.2.075.35.1.2.024.125-.325.125-.375.125-.35.15-.375.125-.375.175-.375.15-.375.175-.35.175-.325.175-.3.2-.3.226-.244.226-.226.226-.175.244-.125.274-.075z" fill="url(#AA)"/><path d="M20.028 2.9h0l-.575-.226-.475-.15h-.45l-.4.075-.35.15-.3.244-.274.3-.244.375-.2.4-.2.45-.2.475-.175.475-.15.475-.175.475-.175.45-.175.425.3.05.15.05.125.05.3.1.175.05.15.024.024-.05v-.15l.05-.175.05-.274.05-.3.125-.35.1-.375.35-.8.226-.375.274-.4.3-.375.375-.35.4-.274.475-.274.524-.2z" fill="url(#AB)"/><path d="M22.077 3.225h0l-.325-.244-.375-.175-.425-.05-.4.024-.425.075-.45.175-.425.244-.425.274-.4.375-.375.4-.325.475-.325.5-.244.55-.2.575-.125.6-.075.65 1.5.375.075-.244.125-.274.1-.325.15-.325.175-.35.175-.375.2-.35.226-.375.244-.35.274-.35.3-.325.3-.3.325-.274.375-.244.375-.2.4-.15z" fill="url(#AC)"/><path d="M18.227 8.101h0l.226.05.274.05.274.075.6.2.274.075.5.15-.05-.024.2-.35.175-.375.15-.375.15-.4.175-.4.15-.35.15-.4.2-.4.2-.35.2-.3.244-.325.244-.274.226-.244.3-.2.3-.15.3-.125-.274-.175-.274-.125-.3-.1-.35-.024-.35.024-.35.1-.375.15-.375.226-.375.274-.375.35-.375.425-.375.5-.35.575-.35.65-.325.774-.3.825z" fill="url(#AD)"/><path d="M25.528 4.275h0l-.6-.325-.524-.175-.5-.05-.45.075-.4.175-.375.244-.325.35-.3.4-.244.45-.244.475-.226.524-.4 1-.2.475-.175.45-.175.375.2.05.175.024.175.05.15.024.35.1.175.024.226.05.2-.4.175-.4.35-.75.15-.35.2-.325.2-.35.175-.3.226-.3.45-.55.274-.244.3-.226.3-.2.35-.2.35-.175z" fill="url(#AE)"/><path d="M27.352 4.8h0l-.55-.3-.5-.125-.5-.05-.45.075-.425.175-.4.274-.376.326-.35.375-.325.425-.3.45-.3.475-.226.475-.244.5-.2.425-.175.425-.15.35.4.1.175.05.15.024.175.05.175.024.226.024.226.05.244-.575.274-.55.5-.951.226-.4.226-.35.45-.65.45-.45.244-.2.244-.15.226-.125.274-.1.274-.05.3-.05z" fill="url(#AF)"/><path d="M28.704 5.2h0l-.524-.244-.475-.125h-.475l-.45.1-.4.175-.4.244-.375.3-.35.375-.3.4-.274.45-.3.45-.45.9-.2.425-.175.4-.15.375.175.05.15.024.175.024.15.05.3.05.175.05.2.024.075-.274.3-.65.4-.7.5-.7.274-.35.274-.325.3-.325.325-.274.3-.244.325-.226.3-.2.3-.15.3-.075z" fill="url(#AG)"/><path d="M30.354 5.625h0l-.524-.3-.524-.125h-.524l-.5.15-.475.226-.475.35-.425.4-.425.425-.375.475-.325.475-.3.475-.244.45-.2.375-.175.35-.075.244-.05.15.226.024.175.05.2.05.175.05.2.024.175.024.2.05.175.024.45-.9.2-.35.226-.4.226-.375.244-.375.274-.4.274-.375.274-.325.325-.3.3-.244.325-.2.3-.15.35-.05.325.024z" fill="url(#AH)"/><path d="M31.552 6.074h0l-.475-.325-.475-.175-.425-.024-.45.075-.4.175-.4.244-.35.325-.35.4-.325.425-.3.45-.274.45-.274.475-.226.425-.2.425-.15.35-.15.274.175.024.15.05.125.05.125.05.125.024.125.05.1.024.15.024.125-.35.15-.375.35-.7.2-.35.2-.3.226-.325.244-.3.274-.3.274-.274.3-.226.325-.226.7-.35.375-.1.4-.1z" fill="url(#AI)"/><path d="M33.079 6.425h0l-.425-.15-.425-.1-.45-.05-.4.05-.425.075-.4.125-.375.226-.4.226-.375.3-.35.35-.325.375-.325.425-.3.475-.524 1.05-.226.55.2.05.2.024.175.05.2.05.175.05.2.05.175.05.2.024.244-.65.15-.325.125-.35.15-.3.175-.325.175-.3.2-.3.244-.274.274-.274.3-.244.325-.244.4-.2.4-.175.5-.175.524-.125z" fill="url(#AJ)"/><path d="M35.228 6.925h0l-.55-.226-.55-.15-.524-.075h-.5l-.475.075-.475.125-.45.2-.4.226-.4.325-.375.35-.325.375-.325.45-.3.475-.226.524-.244.524-.2.55.175.024.175.05 1 .125.2.05.125-.425.125-.375.175-.375.2-.375.226-.325.244-.325.244-.3.6-.55.35-.2.375-.226.375-.175.4-.125.425-.125.9-.1z" fill="url(#AK)"/><path d="M36.28 7.05h0l-.475-.075-.5-.05-.475.024-.475.05-.45.125-.45.15-.425.175-.4.244-.375.274-.375.325-.3.35-.325.375-.244.45-.226.475-.2.5-.15.524.175.024.6.1.125.024.175.05.2.024.244-.425.226-.4.2-.375.2-.35.2-.325.2-.3.175-.3.45-.5.274-.226.274-.2.325-.2.375-.15.425-.15.475-.125.524-.125z" fill="url(#AL)"/><path d="M38.604 7.35h0l-.725-.175-.694-.1-.625-.024-.575.05-.524.125-.5.175-.45.226-.425.274-.375.325-.35.375-.325.4-.3.425-.274.425-.274.475-.226.45-.226.475.1.024.35.05.175.05.2.024.175.05.15.024h.125l.226-.425.226-.4.274-.375.274-.35.3-.35.3-.3.325-.274.35-.244.375-.244.375-.2.8-.4.85-.3.45-.125.475-.125z" fill="url(#AM)"/><path d="M39.98 7.5h0l-.4-.075-.425-.024-.475.024-.475.075-.475.1-.5.15-.5.2-.475.226-.5.274-.475.325-.45.35-.425.4-.4.425-.375.475-.3.5-.274.55.4.05.2.05.2.024.175.05.15.05h.2l.274-.175.3-.2.3-.244.325-.244.325-.274.325-.3.7-.6.375-.3.35-.3.75-.6.4-.274.375-.244.425-.226.375-.2z" fill="url(#AN)"/><path d="M41.93 8.05h0l-.375-.375-.4-.2-.4-.1-.425.024-.425.125-.475.226-.45.3-.5.325-.5.4-.5.425-.524.45-.5.45-.524.45-.524.425-.524.4-.524.35.15.024.2.024h.226l.244.024.226.024h.475l.2-.024.375-.274.4-.3.375-.325.35-.3.35-.325.65-.6.35-.3.35-.244.325-.244.35-.226.375-.2.375-.15.4-.125.4-.075.425-.05z" fill="url(#AO)"/><path d="M43.38 8.225h0l-.6-.15-.575-.05-.55.024-.5.1-.475.175-.475.226-.45.274-.425.3-.85.7-.425.375-.4.4-.425.35-.425.375-.45.3-.45.325h.15l.175.024.226.05h.226l.2.024.2.05h.15l.075.024h.274l.244-.075.274-.15.3-.175.3-.226.3-.274 1.05-.975.4-.35.85-.65.5-.3.475-.3.524-.226.575-.2z" fill="url(#AP)"/><path d="M45.205 8.725h0l-.524-.3-.575-.125h-.55l-.575.125-.55.2-.575.325-.55.35-.55.4-.5.425-.5.45-.475.4-.45.375-.375.325-.375.244-.325.15-.274.05.244.024.226.05.3.024.274.05.3.024.274.05.3.024h.226l.425-.3.35-.3.35-.274.3-.3.3-.274.274-.274.3-.244.274-.244.274-.226.3-.226.325-.2.35-.2.375-.175.4-.15.475-.125.5-.125z" fill="url(#AQ)"/><path d="M9.927 2.749h0l-.05-.125-.075-.175-.05-.15-.1-.35-.05-.35-.024-.2-.024-.175v-.55l.05-.35.05-.175.05-.15-.244.3-.175.325-.125.325-.075.35-.024.35v.356l.05.35.075.35.075.325.125.35.125.325.125.35.15.3.125.325.15.3.125.3-.024-.075-.024-.1v-.226l-.024-.175V4.2l-.024-.2v-.4l-.024-.175v-.176l-.05-.175-.024-.175-.05-.15z" fill="url(#AR)"/><path d="M5.5 8.8h0l.274-.15.55-.35.75-.45.226-.15.244-.15.226-.15.244-.15.226-.175.244-.125.226-.15.244-.125.274-.15.244-.15-.226.226-.226.244-.244.226-.226.226-.244.226-.75.6-.244.175-.274.15-.244.125-.5.2-.274.024-.244.024-.274-.024z" fill="url(#AS)"/><path d="M7.676 2.981h0l.2.125.175.125.2.125.175.15.175.125.15.15.175.15.3.3.15.175.15.15.125.175.15.15.375.524-.05-.175-.226-.6-.2-.4-.1-.175-.15-.2-.125-.175-.2-.15-.175-.15-.2-.125-.244-.1-.226-.075-.3-.075-.3-.024z" fill="url(#AT)"/><path d="M9.827 1.225h0l.075.3.024.3.075.274.05.274.024.274.024.244.05.274.024.244.05.274.05.5.05.274.05.244.05.274.05.244.05.274.05-.325.024-.3.05-.325.024-.325v-.264l.024-.3-.024-.3v-.3l-.05-.3-.024-.244-.075-.274-.2-.45-.15-.2-.15-.175-.2-.175z" fill="url(#AU)"/><path d="M8.276.749h0l-.244.244-.175.274-.075.3v.3l.05.3.125.325.15.325.2.325.2.3.5.6.244.244.226.274.2.2.175.226.15.15-.024-.45-.075-.375-.075-.325-.1-.274-.125-.244-.15-.226-.3-.4-.15-.175-.3-.4-.125-.226-.2-.55-.075-.35-.024-.4z" fill="url(#AV)"/><path d="M10.151 5.401h0v-.575l.024-.3v-.302l.075-.825.024-.244.1-.55.075-.274.05-.244.075-.244.1-.274.1-.244.1-.274-.425.4-.35.4-.226.375-.175.35-.125.325-.05.3-.024.325.024.274.15.5.1.226.1.2.1.226.15.35.024.125z" fill="url(#AW)"/><path d="M5.876 6.425h0l.226.024.244.05.226.024.226.05h.244l.226.024h.45l.226-.024h.226l.45-.05h.244l.2-.024.244-.05.2-.024-.175.1-.6.226-.226.075-.226.05-.226.075-.226.024h-.696l-.244-.05-.244-.075-.244-.1-.244-.15-.244-.175z" fill="url(#AX)"/><path d="M7.226 7.601h0l-.175.024-.15.024-.35.1-.175.075-.175.05-.15.075-.175.075-.175.1-.45.3-.125.125-.125.1-.1.125-.125.125.125-.35.15-.3.175-.244.244-.244.244-.2.3-.2.65-.3.35-.1.35-.125.375-.1.35-.075.375-.075.35-.075.325-.05.3-.075-.15.05-.226.125-.244.175-.325.175-.325.226-.65.35-.3.125z" fill="url(#AY)"/><path d="M6.575 10.2h0l-.15-.325-.024-.325.024-.325.125-.3.175-.274.226-.274.274-.244.325-.226.3-.244.7-.4.325-.175.3-.175.3-.125.244-.15.175-.1-.2.425-.2.35-.226.274-.2.244-.2.175-.226.175-.226.125-.226.15-.2.125-.45.3-.2.175-.2.2-.2.274-.2.3-.175.375z" fill="url(#AZ)"/><path d="M10.226 6.625h0l-.15.244-.175.244-.15.226-.15.244-.125.226-.125.244-.125.226-.125.244-.125.244-.1.244-.1.226-.226.75-.075.274-.05.274-.15-.55-.075-.5v-.425l.05-.375.075-.325.125-.3.175-.244.175-.2.4-.35.226-.125.2-.125.35-.2.15-.125.1-.1z" fill="url(#Aa)"/></g></g></g></symbol></svg>